<svg width="200" height="200" viewBox="0 0 200 200" fill="none" xmlns="http://www.w3.org/2000/svg">
  <rect width="200" height="200" rx="40" fill="#4F46E5" />
  <circle cx="100" cy="100" r="70" fill="#F59E0B" fillOpacity="0.8" />
  <path d="M65 80C65 71.7157 71.7157 65 80 65H120C128.284 65 135 71.7157 135 80V120C135 128.284 128.284 135 120 135H80C71.7157 135 65 128.284 65 120V80Z" fill="white" />
  <path d="M85 95C85 91.6863 87.6863 89 91 89H109C112.314 89 115 91.6863 115 95V115C115 118.314 112.314 121 109 121H91C87.6863 121 85 118.314 85 115V95Z" fill="#4F46E5" />
  <path d="M50 100C50 72.3858 72.3858 50 100 50V60C77.9086 60 60 77.9086 60 100H50Z" fill="white" />
  <path d="M150 100C150 127.614 127.614 150 100 150V140C122.091 140 140 122.091 140 100H150Z" fill="white" />
  <circle cx="100" cy="40" r="10" fill="#F59E0B" />
  <circle cx="100" cy="160" r="10" fill="#F59E0B" />
  <circle cx="40" cy="100" r="10" fill="#F59E0B" />
  <circle cx="160" cy="100" r="10" fill="#F59E0B" />
</svg>
